<svg width="34" height="34" viewBox="0 0 34 34" fill="none" xmlns="http://www.w3.org/2000/svg">
<path fill-rule="evenodd" clip-rule="evenodd" d="M31.5714 19.4286C32.9127 19.4286 34 20.5159 34 21.8571V29.1429C34 31.8255 31.8255 34 29.1429 34H4.85714C2.17462 34 0 31.8255 0 29.1429V21.8571C0 20.5159 1.08732 19.4286 2.42857 19.4286C3.76982 19.4286 4.85714 20.5159 4.85714 21.8571V29.1429H29.1429V21.8571C29.1429 20.5159 30.2301 19.4286 31.5714 19.4286ZM17 0C18.3413 0 19.4286 1.08732 19.4286 2.42857V13.5655L22.5685 10.4256C23.5168 9.47718 25.0546 9.47718 26.003 10.4256C26.9513 11.374 26.9513 12.9117 26.003 13.8601L17 22.8631L7.99702 13.8601C7.04861 12.9117 7.04861 11.374 7.99702 10.4256C8.94545 9.47718 10.4831 9.47718 11.4316 10.4256L14.5714 13.5655V2.42857C14.5714 1.08732 15.6587 0 17 0Z" fill="black"/>
</svg>
