<svg width="11" height="18" viewBox="0 0 11 18" fill="none" xmlns="http://www.w3.org/2000/svg">
<path d="M1.64023 17.2C1.31584 17.1999 0.998752 17.1037 0.729054 16.9234C0.459356 16.7432 0.249155 16.487 0.125026 16.1873C0.000896735 15.8876 -0.031587 15.5578 0.0316792 15.2397C0.0949454 14.9215 0.251122 14.6292 0.480465 14.3998L6.27942 8.59991L0.480415 2.80005C0.172812 2.49245 1.53818e-06 2.07525 0 1.64023C-1.53816e-06 1.20522 0.172806 0.788019 0.480407 0.480415C0.788008 0.172812 1.20521 1.53818e-06 1.64022 0C2.07524 -1.53816e-06 2.49244 0.172806 2.80004 0.480407L9.75891 7.44015C9.91127 7.59243 10.0321 7.77323 10.1146 7.97224C10.1971 8.17124 10.2395 8.38454 10.2395 8.59996C10.2395 8.81537 10.1971 9.02867 10.1146 9.22768C10.0321 9.42668 9.91127 9.60749 9.75891 9.75977L2.80004 16.7195C2.64791 16.872 2.46713 16.993 2.26809 17.0755C2.06905 17.1579 1.85567 17.2003 1.64023 17.2Z" fill="#214300"/>
</svg>
