<svg width="10" height="12" viewBox="0 0 10 12" fill="none" xmlns="http://www.w3.org/2000/svg">
<path d="M7.5346 1.58072V0.725909C7.5346 0.501247 7.34829 0.314941 7.12363 0.314941C6.89897 0.314941 6.71266 0.501247 6.71266 0.725909V1.54784H3.15096V0.725909C3.15096 0.501247 2.96465 0.314941 2.73999 0.314941C2.51533 0.314941 2.32902 0.501247 2.32902 0.725909V1.58072C0.849539 1.71771 0.131715 2.59992 0.0221237 3.90954C0.0111645 4.06845 0.142674 4.19996 0.296102 4.19996H9.56752C9.72643 4.19996 9.85794 4.06297 9.8415 3.90954C9.73191 2.59992 9.01408 1.71771 7.5346 1.58072Z" fill="black"/>
<path d="M9.31527 5.02173H0.547957C0.246581 5.02173 0 5.26829 0 5.56966V8.94508C0 10.589 0.821936 11.6849 2.73979 11.6849H7.12344C9.04129 11.6849 9.86323 10.589 9.86323 8.94508V5.56966C9.86323 5.26829 9.61665 5.02173 9.31527 5.02173ZM3.40281 9.60811C3.37542 9.63003 3.34802 9.65742 3.32062 9.67386C3.28774 9.69578 3.25487 9.71222 3.22199 9.72318C3.18911 9.73962 3.15623 9.75058 3.12336 9.75606C3.085 9.76153 3.05212 9.76701 3.01376 9.76701C2.94253 9.76701 2.8713 9.75058 2.80554 9.72318C2.73431 9.69578 2.67951 9.65742 2.62471 9.60811C2.52608 9.504 2.46581 9.36153 2.46581 9.21906C2.46581 9.07659 2.52608 8.93412 2.62471 8.83001C2.67951 8.78069 2.73431 8.74233 2.80554 8.71494C2.90417 8.6711 3.01376 8.66014 3.12336 8.68206C3.15623 8.68754 3.18911 8.6985 3.22199 8.71494C3.25487 8.7259 3.28774 8.74234 3.32062 8.76425C3.34802 8.78617 3.37542 8.80809 3.40281 8.83001C3.50145 8.93412 3.56172 9.07659 3.56172 9.21906C3.56172 9.36153 3.50145 9.504 3.40281 9.60811ZM3.40281 7.69026C3.2987 7.78889 3.15623 7.84916 3.01376 7.84916C2.8713 7.84916 2.72883 7.78889 2.62471 7.69026C2.52608 7.58615 2.46581 7.44368 2.46581 7.30121C2.46581 7.15874 2.52608 7.01627 2.62471 6.91216C2.77814 6.75873 3.01924 6.70941 3.22199 6.79709C3.29322 6.82449 3.3535 6.86284 3.40281 6.91216C3.50145 7.01627 3.56172 7.15874 3.56172 7.30121C3.56172 7.44368 3.50145 7.58615 3.40281 7.69026ZM5.32066 9.60811C5.21655 9.70674 5.07408 9.76701 4.93161 9.76701C4.78915 9.76701 4.64668 9.70674 4.54256 9.60811C4.44393 9.504 4.38366 9.36153 4.38366 9.21906C4.38366 9.07659 4.44393 8.93412 4.54256 8.83001C4.74531 8.62726 5.11792 8.62726 5.32066 8.83001C5.4193 8.93412 5.47957 9.07659 5.47957 9.21906C5.47957 9.36153 5.4193 9.504 5.32066 9.60811ZM5.32066 7.69026C5.29327 7.71218 5.26587 7.73409 5.23847 7.75601C5.20559 7.77793 5.17272 7.79437 5.13984 7.80533C5.10696 7.82177 5.07408 7.83273 5.04121 7.83821C5.00285 7.84369 4.96997 7.84916 4.93161 7.84916C4.78915 7.84916 4.64668 7.78889 4.54256 7.69026C4.44393 7.58615 4.38366 7.44368 4.38366 7.30121C4.38366 7.15874 4.44393 7.01627 4.54256 6.91216C4.59188 6.86284 4.65216 6.82449 4.72339 6.79709C4.92614 6.70941 5.16724 6.75873 5.32066 6.91216C5.4193 7.01627 5.47957 7.15874 5.47957 7.30121C5.47957 7.44368 5.4193 7.58615 5.32066 7.69026ZM7.23851 9.60811C7.1344 9.70674 6.99193 9.76701 6.84946 9.76701C6.707 9.76701 6.56453 9.70674 6.46042 9.60811C6.36178 9.504 6.30151 9.36153 6.30151 9.21906C6.30151 9.07659 6.36178 8.93412 6.46042 8.83001C6.66316 8.62726 7.03577 8.62726 7.23851 8.83001C7.33715 8.93412 7.39742 9.07659 7.39742 9.21906C7.39742 9.36153 7.33715 9.504 7.23851 9.60811ZM7.23851 7.69026C7.21112 7.71218 7.18372 7.73409 7.15632 7.75601C7.12344 7.77793 7.09057 7.79437 7.05769 7.80533C7.02481 7.82177 6.99193 7.83273 6.95906 7.83821C6.9207 7.84369 6.88234 7.84916 6.84946 7.84916C6.707 7.84916 6.56453 7.78889 6.46042 7.69026C6.36178 7.58615 6.30151 7.44368 6.30151 7.30121C6.30151 7.15874 6.36178 7.01627 6.46042 6.91216C6.51521 6.86284 6.57001 6.82449 6.64124 6.79709C6.73987 6.75325 6.84946 6.74229 6.95906 6.76421C6.99193 6.76969 7.02481 6.78065 7.05769 6.79709C7.09057 6.80805 7.12344 6.82449 7.15632 6.8464L7.23851 6.91216C7.33715 7.01627 7.39742 7.15874 7.39742 7.30121C7.39742 7.44368 7.33715 7.58615 7.23851 7.69026Z" fill="black"/>
</svg>
