<svg width="10" height="10" viewBox="0 0 10 10" fill="none" xmlns="http://www.w3.org/2000/svg">
<path fill-rule="evenodd" clip-rule="evenodd" d="M8.89571 5.68425C9.27365 5.68425 9.58 5.99061 9.58 6.36853V8.42139C9.58 9.17725 8.96729 9.78996 8.21143 9.78996H1.36857C0.61273 9.78996 0 9.17725 0 8.42139V6.36853C0 5.99061 0.306368 5.68425 0.684286 5.68425C1.0622 5.68425 1.36857 5.99061 1.36857 6.36853V8.42139H8.21143V6.36853C8.21143 5.99061 8.51778 5.68425 8.89571 5.68425ZM4.79 0.209961C5.16792 0.209961 5.47429 0.516329 5.47429 0.894247V4.03224L6.359 3.14752C6.62621 2.8803 7.0595 2.8803 7.32672 3.14752C7.59393 3.41476 7.59393 3.84802 7.32672 4.11525L4.79 6.65196L2.25328 4.11525C1.98605 3.84802 1.98605 3.41476 2.25328 3.14752C2.52051 2.8803 2.95377 2.8803 3.22101 3.14752L4.10571 4.03224V0.894247C4.10571 0.516329 4.41208 0.209961 4.79 0.209961Z" fill="white"/>
</svg>
