<svg width="11" height="18" viewBox="0 0 11 18" fill="none" xmlns="http://www.w3.org/2000/svg">
<path d="M8.59171 17.2C8.9161 17.1999 9.23318 17.1037 9.50288 16.9234C9.77258 16.7432 9.98278 16.487 10.1069 16.1873C10.231 15.8876 10.2635 15.5578 10.2003 15.2397C10.137 14.9215 9.98081 14.6292 9.75147 14.3998L3.95251 8.59991L9.75152 2.80005C10.0591 2.49245 10.2319 2.07525 10.2319 1.64023C10.2319 1.20522 10.0591 0.788019 9.75153 0.480415C9.44393 0.172812 9.02673 1.53818e-06 8.59171 0C8.1567 -1.53816e-06 7.7395 0.172806 7.43189 0.480407L0.473026 7.44015C0.320665 7.59243 0.1998 7.77323 0.117338 7.97224C0.0348768 8.17124 -0.00756645 8.38454 -0.00756645 8.59996C-0.00756645 8.81537 0.0348768 9.02867 0.117338 9.22768C0.1998 9.42668 0.320665 9.60749 0.473026 9.75977L7.43189 16.7195C7.58402 16.872 7.7648 16.993 7.96384 17.0755C8.16288 17.1579 8.37626 17.2003 8.59171 17.2Z" fill="#8D8D8D"/>
</svg>
